PathFileType	4	(X/Y/Z)	C:/Users/opensim2020/Desktop/walking_exp_matlab/subject01_walking06_straight_02.trc	
DataRate	CameraRate	NumFrames	NumMarkers	Units	OrigDataRate	OrigDataStartFrame	OrigNumFrames	
100.00	100.00	5	43	mm	100.00	1557	171	
Frame#	Time	LFHD			RFHD			LBHD			RBHD			C7			T10			CLAV			STRN			RBAK			LSHO			LUPA			LELB			LFRM			LWRA			LWRB			LFIN			RSHO			RUPA			RELB			RFRM			RWRA			RWRB			RFIN			LASI			RASI			LPSI			RPSI			LTHI			LKNE			LTIB			LANK			LHEE			LTOE			RTHI			RKNE			RTIB			RANK			RHEE			RTOE			*39			*40			*41			*42			
		X1	Y1	Z1	X2	Y2	Z2	X3	Y3	Z3	X4	Y4	Z4	X5	Y5	Z5	X6	Y6	Z6	X7	Y7	Z7	X8	Y8	Z8	X9	Y9	Z9	X10	Y10	Z10	X11	Y11	Z11	X12	Y12	Z12	X13	Y13	Z13	X14	Y14	Z14	X15	Y15	Z15	X16	Y16	Z16	X17	Y17	Z17	X18	Y18	Z18	X19	Y19	Z19	X20	Y20	Z20	X21	Y21	Z21	X22	Y22	Z22	X23	Y23	Z23	X24	Y24	Z24	X25	Y25	Z25	X26	Y26	Z26	X27	Y27	Z27	X28	Y28	Z28	X29	Y29	Z29	X30	Y30	Z30	X31	Y31	Z31	X32	Y32	Z32	X33	Y33	Z33	X34	Y34	Z34	X35	Y35	Z35	X36	Y36	Z36	X37	Y37	Z37	X38	Y38	Z38	X39	Y39	Z39	X40	Y40	Z40	X41	Y41	Z41	X42	Y42	Z42	X43	Y43	Z43	

43	0.420	-1046.79187	484.08267	1669.21069	-1157.60193	451.10272	1677.38098	-1076.73071	597.19611	1624.92786	-1193.98315	566.40277	1633.43225	-1115.50049	629.43158	1432.25598	-1126.32007	663.46002	1139.05957	-1115.94666	484.17218	1366.03345	-1117.06116	439.52301	1212.78003	-1198.17114	682.58765	1240.70337	-954.19330	546.33636	1390.09912	-872.62939	576.23474	1202.94409	-877.38794	599.18451	1054.79321	-857.11414	571.42950	943.72906	-887.43774	512.22919	818.58685	-852.37207	561.45374	821.35974	-856.46802	524.75726	743.37628	-1267.32300	546.19464	1398.40442	-1373.41711	605.47638	1202.69812	-1378.09534	607.13208	1075.70313	-1407.76697	564.93005	960.72845	-1391.49463	465.45212	859.57202	-1426.96118	511.04834	851.99042	-1426.05457	462.05130	781.39465	-1028.07813	480.01312	936.45496	-1244.85425	498.66183	931.83447	-1063.51672	670.42871	945.60425	-1207.78821	681.22833	941.13293	-976.32166	477.25732	606.92017	-999.67334	472.30832	473.23248	-996.23755	514.72290	286.48264	-1059.08362	534.35779	72.66504	-1113.35339	577.20892	43.49216	-1052.03564	386.32288	37.72468	-1312.63135	535.01709	596.00977	-1302.16809	526.63269	438.55005	-1298.87976	679.23578	351.97400	-1245.21362	838.50079	225.75125	-1183.16553	883.24860	239.29175	-1257.12317	814.30975	83.23637	-1136.01038	467.13934	1710.73083	-3101.91919	1973.15161	1023.45551	-3140.61401	2012.55347	1022.01001			 
44	0.430	-1045.91040	474.10712	1669.62415	-1156.62549	441.24603	1677.85168	-1075.75171	587.28894	1625.39709	-1193.05188	556.61670	1633.99634	-1114.41211	619.76910	1432.89893	-1125.24268	654.47162	1139.81665	-1115.15759	474.56357	1366.36841	-1116.43323	430.29041	1212.92932	-1196.94934	673.39313	1241.44043	-953.37347	536.12671	1390.47424	-871.48206	563.61511	1203.15881	-875.93500	585.01947	1054.53870	-855.39771	554.70349	944.01080	-885.91425	492.44974	820.44061	-850.86395	541.65778	821.91620	-854.65533	502.88019	745.17761	-1266.55945	536.81268	1398.88037	-1372.33704	596.29474	1203.09338	-1376.89990	598.34039	1076.23474	-1406.63538	558.11511	960.83917	-1390.07617	460.77441	857.52649	-1425.97656	506.14188	850.97705	-1424.34631	458.81815	779.09259	-1027.08093	471.39920	936.53577	-1244.06604	489.37411	932.72516	-1063.18140	661.88342	945.73486	-1207.39478	672.22644	940.96082	-976.00818	472.28235	606.51813	-999.18231	468.45212	472.60056	-996.00049	512.76575	286.27948	-1059.09668	534.14685	72.63375	-1113.41223	577.11993	43.69281	-1051.79932	385.96835	36.99524	-1311.88159	519.61450	597.63544	-1301.79236	506.88342	441.06897	-1297.51624	659.31207	354.24466	-1243.93127	818.35321	227.98595	-1181.45911	863.60352	240.51268	-1258.73120	794.21191	85.43455	-1135.17407	457.22995	1711.13904	-3101.84473	1973.15735	1023.25696	-3140.53198	2012.58691	1022.06073			 
45	0.440	-1045.14148	464.17645	1670.02637	-1155.50061	431.55960	1678.07678	-1074.90796	577.42358	1625.95435	-1192.22498	546.84100	1634.51807	-1113.41235	610.14038	1433.50940	-1124.23792	645.51379	1140.54602	-1114.60620	465.02502	1366.65088	-1115.68750	421.14917	1213.04932	-1195.84644	664.31232	1242.15588	-952.71765	526.09760	1390.89685	-870.66644	551.56982	1203.50586	-874.16736	570.68427	1054.46155	-853.74896	537.73645	944.44446	-884.41272	472.58878	822.58252	-849.26636	521.86737	822.76575	-852.91577	480.69958	747.30811	-1265.77490	527.44867	1399.27759	-1371.22839	587.26843	1203.43481	-1375.58923	589.76160	1076.78992	-1405.49109	551.32251	960.93512	-1388.79993	456.16376	855.61627	-1425.00598	501.44180	850.06854	-1422.87830	455.65033	776.90887	-1025.89270	462.91208	936.78363	-1243.15112	480.02927	933.71539	-1063.06128	653.35309	945.81683	-1207.31396	663.05957	941.19623	-975.52728	467.07910	606.14691	-998.83252	464.68484	471.93716	-995.79803	510.89294	286.09860	-1059.13220	533.95007	72.75929	-1113.57166	577.02075	43.74025	-1051.67456	385.83807	36.92936	-1311.13916	504.10214	599.38739	-1300.55090	487.45776	443.48825	-1296.10315	639.39667	356.24878	-1243.15381	798.14166	229.46255	-1180.22632	843.41559	240.56033	-1260.07080	771.95306	87.57435	-1134.25513	447.34161	1711.37683	-3101.90234	1973.16980	1023.47412	-3140.64453	2012.56152	1021.99219			 
46	0.450	-1044.48889	454.05695	1670.44531	-1154.97119	421.63065	1678.37097	-1074.04480	567.44672	1626.46838	-1191.42615	537.01294	1634.94177	-1112.49500	600.58405	1434.16943	-1123.38477	636.53235	1141.24646	-1113.97852	455.53220	1366.87915	-1115.03833	412.07300	1213.23547	-1194.83484	655.17004	1242.80383	-951.99005	516.13623	1391.30103	-869.81854	539.72821	1203.93518	-872.28809	556.51935	1054.30688	-852.00073	520.58746	945.14856	-882.83124	452.57886	825.06531	-847.91302	502.21094	824.01630	-851.09229	458.51105	749.84747	-1265.09021	518.08887	1399.79089	-1370.15796	578.50122	1203.79712	-1374.20984	581.34509	1077.30383	-1404.47961	544.58746	961.23322	-1387.59314	451.65021	853.81384	-1424.28882	496.72537	849.39221	-1421.65393	452.67020	775.01123	-1024.84680	454.77234	936.89441	-1241.75244	471.02667	934.48956	-1063.06543	644.87531	945.95575	-1207.40063	653.77020	941.81354	-975.16248	461.90152	605.72839	-998.34320	461.05988	471.39206	-995.79340	509.06198	285.87393	-1059.25610	533.77197	72.82870	-1113.57031	577.01068	44.07594	-1051.51196	385.73560	36.75558	-1310.43030	488.37622	601.08063	-1299.12500	468.16510	445.64700	-1294.71667	619.53943	357.94336	-1242.30847	777.32117	229.63968	-1179.41870	823.23212	239.36530	-1261.23389	747.87634	89.34319	-1133.67676	437.29886	1711.88342	-3101.87231	1973.10181	1023.31873	-3140.68604	2012.68347	1022.04108			 
47	0.460	-1044.06384	443.95694	1670.72961	-1154.52368	411.62946	1678.53467	-1073.29309	557.42804	1627.02209	-1190.79065	527.17401	1635.39331	-1111.56506	591.02557	1434.78589	-1122.60303	627.61615	1141.87756	-1113.34473	446.17859	1367.25171	-1114.37549	403.02020	1213.40088	-1193.98035	646.10925	1243.47266	-951.32300	506.37646	1391.73328	-869.11108	527.90509	1204.33118	-870.18530	542.20667	1054.47656	-850.28186	503.40201	946.06860	-881.45142	432.64655	827.71490	-846.40808	481.88760	825.48254	-849.11035	436.35349	752.76617	-1264.31738	508.92111	1400.23730	-1369.13525	569.88983	1204.14783	-1372.80115	573.04803	1077.78259	-1403.35229	537.99280	961.39978	-1386.45898	447.16089	852.09338	-1423.45435	492.15897	848.74823	-1420.40662	449.73184	773.21564	-1023.53522	446.23218	937.17487	-1240.63879	461.48129	935.53571	-1063.13501	636.38898	946.12213	-1207.67310	644.29895	942.71173	-974.72955	456.83493	605.37830	-997.83978	457.68750	470.84564	-995.54358	507.13559	285.75827	-1059.47803	533.17102	72.76680	-1113.72314	576.86383	44.24461	-1051.32764	385.65527	36.61163	-1309.32605	472.53513	602.87036	-1298.54114	449.26050	448.20679	-1293.19812	599.80487	359.25336	-1241.51587	756.05304	228.71942	-1178.97144	802.81085	237.01553	-1261.38733	722.61572	89.42907	-1133.25464	427.23926	1711.96802	-3101.90161	1973.17871	1023.34448	-3140.62646	2012.52222	1022.02655			 
